<svg xmlns="http://www.w3.org/2000/svg" viewBox="0 0 512 512">
  <defs>
    <linearGradient id="bg" x1="0" y1="0" x2="1" y2="1">
      <stop offset="0%" stop-color="#122955"/>
      <stop offset="55%" stop-color="#091a36"/>
      <stop offset="100%" stop-color="#050b16"/>
    </linearGradient>

    <linearGradient id="blue" x1="0" y1="0" x2="1" y2="1">
      <stop offset="0%" stop-color="#94a2ff"/>
      <stop offset="100%" stop-color="#4f62ff"/>
    </linearGradient>

    <linearGradient id="green" x1="0" y1="0" x2="1" y2="1">
      <stop offset="0%" stop-color="#35f2df"/>
      <stop offset="100%" stop-color="#00afa2"/>
    </linearGradient>

    <linearGradient id="pink" x1="0" y1="0" x2="1" y2="1">
      <stop offset="0%" stop-color="#ff9cc5"/>
      <stop offset="100%" stop-color="#ff4d93"/>
    </linearGradient>

    <linearGradient id="center" x1="0" y1="0" x2="1" y2="1">
      <stop offset="0%" stop-color="#ffffff"/>
      <stop offset="100%" stop-color="#cfdcff"/>
    </linearGradient>

    <filter id="shadow">
      <feDropShadow dx="0" dy="14" stdDeviation="18" flood-color="#000000" flood-opacity=".38"/>
    </filter>
  </defs>

  <rect x="18" y="18" width="476" height="476" rx="110" fill="url(#bg)"/>

  <circle cx="110" cy="95" r="95" fill="#7085ff" opacity=".12"/>
  <circle cx="414" cy="105" r="90" fill="#00d7c7" opacity=".10"/>
  <circle cx="397" cy="411" r="100" fill="#ff5c9e" opacity=".10"/>

  <g stroke="#d5e0ff" stroke-width="12" stroke-linecap="round" opacity=".8">
    <path d="M198 194 L230 230"/>
    <path d="M314 194 L282 230"/>
    <path d="M256 318 L256 280"/>
  </g>

  <g filter="url(#shadow)">
    <rect x="80" y="80" width="130" height="130" rx="34" fill="url(#blue)"/>
    <rect x="302" y="80" width="130" height="130" rx="34" fill="url(#green)"/>
    <rect x="191" y="302" width="130" height="130" rx="34" fill="url(#pink)"/>
  </g>

  <g stroke="#fff" stroke-width="11" stroke-linecap="round" stroke-linejoin="round" fill="none">
    <path d="M111 166 L139 136 L160 151 L187 116"/>
    <path d="M333 167 L358 143 L381 151 L405 118"/>
    <path d="M222 389 L247 360 L269 374 L293 338"/>
  </g>

  <g filter="url(#shadow)">
    <circle cx="256" cy="256" r="76" fill="url(#center)"/>
  </g>

  <path d="M223 278V233h25c20 0 33 8 33 22s-13 23-33 23h-25Zm19-15h8c8 0 12-3 12-8s-4-8-12-8h-8v16Z" fill="#0b1c3b"/>
  <path d="M287 278v-45h18l14 19 14-19h18v45h-18v-20l-14 17-14-17v20h-18Z" fill="#0b1c3b"/>
</svg>
